<svg xmlns="http://www.w3.org/2000/svg" viewBox="0 0 512 512" width="512" height="512">
  <defs>
    <linearGradient id="bg-bong-go" x1="0%" y1="0%" x2="100%" y2="100%">
      <stop offset="0%" stop-color="#0A1628"/>
      <stop offset="100%" stop-color="#0F1F35"/>
    </linearGradient>
    <radialGradient id="glow-bong-go" cx="50%" cy="50%" r="50%">
      <stop offset="0%" stop-color="#1B7340" stop-opacity="0.08"/>
      <stop offset="100%" stop-color="#1B7340" stop-opacity="0"/>
    </radialGradient>
  </defs>

  <!-- Background -->
  <rect width="512" height="512" fill="url(#bg-bong-go)" rx="32"/>

  <!-- Ambient glow -->
  <rect width="512" height="512" fill="url(#glow-bong-go)" rx="32"/>

  <!-- Geometric pattern -->
  <line x1="256" y1="256" x2="354.7" y2="262.3" stroke="#1B7340" stroke-width="3.4" opacity="0.25"/>
<line x1="256" y1="256" x2="391.2" y2="336.7" stroke="#1B7340" stroke-width="3.2" opacity="0.25"/>
<line x1="256" y1="256" x2="330.3" y2="369.0" stroke="#1B7340" stroke-width="2.9" opacity="0.25"/>
<line x1="256" y1="256" x2="265.3" y2="362.4" stroke="#1B7340" stroke-width="2.2" opacity="0.25"/>
<line x1="256" y1="256" x2="193.3" y2="415.7" stroke="#1B7340" stroke-width="3.2" opacity="0.25"/>
<line x1="256" y1="256" x2="174.1" y2="344.1" stroke="#1B7340" stroke-width="3.7" opacity="0.25"/>
<line x1="256" y1="256" x2="106.2" y2="303.0" stroke="#1B7340" stroke-width="2.9" opacity="0.25"/>
<line x1="256" y1="256" x2="131.9" y2="254.5" stroke="#1B7340" stroke-width="1.9" opacity="0.25"/>
<line x1="256" y1="256" x2="99.1" y2="176.9" stroke="#1B7340" stroke-width="1.6" opacity="0.25"/>
<line x1="256" y1="256" x2="186.1" y2="163.4" stroke="#1B7340" stroke-width="2.2" opacity="0.25"/>
<line x1="256" y1="256" x2="225.4" y2="98.2" stroke="#1B7340" stroke-width="2.8" opacity="0.25"/>
<line x1="256" y1="256" x2="309.8" y2="112.8" stroke="#1B7340" stroke-width="3.3" opacity="0.25"/>
<line x1="256" y1="256" x2="354.8" y2="154.1" stroke="#1B7340" stroke-width="3.3" opacity="0.25"/>
<line x1="256" y1="256" x2="366.5" y2="209.0" stroke="#1B7340" stroke-width="3.1" opacity="0.25"/>
<circle cx="404.6" cy="256.0" r="10.8" fill="#2ECC71" opacity="0.5"/>
<circle cx="287.0" cy="391.8" r="5.0" fill="#2ECC71" opacity="0.5"/>
<circle cx="133.1" cy="315.2" r="9.7" fill="#2ECC71" opacity="0.5"/>
<circle cx="184.6" cy="166.5" r="10.4" fill="#2ECC71" opacity="0.5"/>
<circle cx="320.5" cy="175.2" r="8.7" fill="#2ECC71" opacity="0.5"/>


  <!-- Initials circle -->
  <circle cx="256" cy="256" r="64" fill="#0A1628" stroke="#1B7340" stroke-width="2.5" opacity="0.95"/>
  <text x="256" y="256" text-anchor="middle" dominant-baseline="central" font-family="system-ui, -apple-system, sans-serif" font-size="42" font-weight="700" fill="#1B7340" letter-spacing="2">BG</text>
</svg>