<svg xmlns="http://www.w3.org/2000/svg" viewBox="0 0 512 512" width="512" height="512">
  <defs>
    <linearGradient id="bg-joel-villanueva" x1="0%" y1="0%" x2="100%" y2="100%">
      <stop offset="0%" stop-color="#0A1628"/>
      <stop offset="100%" stop-color="#0F1F35"/>
    </linearGradient>
    <radialGradient id="glow-joel-villanueva" cx="50%" cy="50%" r="50%">
      <stop offset="0%" stop-color="#1B7340" stop-opacity="0.08"/>
      <stop offset="100%" stop-color="#1B7340" stop-opacity="0"/>
    </radialGradient>
  </defs>

  <!-- Background -->
  <rect width="512" height="512" fill="url(#bg-joel-villanueva)" rx="32"/>

  <!-- Ambient glow -->
  <rect width="512" height="512" fill="url(#glow-joel-villanueva)" rx="32"/>

  <!-- Geometric pattern -->
  <polygon points="370.1,265.3 350.0,281.5 326.0,272.1 322.0,246.7 342.1,230.5 366.2,239.9" fill="#1B7340" opacity="0.1948607925895743"/>
<polygon points="356.9,353.1 324.9,376.5 288.5,360.4 284.3,321.0 316.4,297.5 352.7,313.6" fill="#1B7340" opacity="0.2250781013339474"/>
<polygon points="260.2,409.4 226.1,429.9 191.2,410.6 190.5,370.7 224.7,350.2 259.6,369.6" fill="#1B7340" opacity="0.24264051138717693"/>
<polygon points="175.5,333.1 140.8,333.8 122.8,304.2 139.5,273.7 174.2,273.0 192.2,302.7" fill="#1B7340" opacity="0.31568461450880503"/>
<polygon points="209.1,225.0 179.6,254.3 139.4,243.4 128.8,203.1 158.4,173.9 198.5,184.8" fill="#1B7340" opacity="0.21580448273238828"/>
<polygon points="263.5,140.3 246.0,169.5 211.9,168.9 195.4,139.1 212.9,109.9 247.0,110.5" fill="#1B7340" opacity="0.22717135685430173"/>
<polygon points="357.2,195.4 316.1,203.7 288.3,172.2 301.7,132.4 342.8,124.1 370.6,155.6" fill="#1B7340" opacity="0.30614301742896044"/>
<polygon points="306.0,256.0 281.0,299.3 231.0,299.3 206.0,256.0 231.0,212.7 281.0,212.7" fill="#145A33" opacity="0.4"/>


  <!-- Initials circle -->
  <circle cx="256" cy="256" r="64" fill="#0A1628" stroke="#1B7340" stroke-width="2.5" opacity="0.95"/>
  <text x="256" y="256" text-anchor="middle" dominant-baseline="central" font-family="system-ui, -apple-system, sans-serif" font-size="42" font-weight="700" fill="#1B7340" letter-spacing="2">JV</text>
</svg>