<svg xmlns="http://www.w3.org/2000/svg" viewBox="0 0 512 512" width="512" height="512">
  <defs>
    <linearGradient id="bg-tito-sotto" x1="0%" y1="0%" x2="100%" y2="100%">
      <stop offset="0%" stop-color="#0A1628"/>
      <stop offset="100%" stop-color="#0F1F35"/>
    </linearGradient>
    <radialGradient id="glow-tito-sotto" cx="50%" cy="50%" r="50%">
      <stop offset="0%" stop-color="#1B7340" stop-opacity="0.08"/>
      <stop offset="100%" stop-color="#1B7340" stop-opacity="0"/>
    </radialGradient>
  </defs>
  <rect width="512" height="512" fill="url(#bg-tito-sotto)" rx="32"/>
  <rect width="512" height="512" fill="url(#glow-tito-sotto)" rx="32"/>
  <ellipse cx="256" cy="256" rx="68.8" ry="40.8" fill="none" stroke="#1B7340" stroke-width="1.5" opacity="0.2" transform="rotate(53 256 256)"/>
<ellipse cx="256" cy="256" rx="108.3" ry="73.1" fill="none" stroke="#1B7340" stroke-width="1.5" opacity="0.28" transform="rotate(116 256 256)"/>
<ellipse cx="256" cy="256" rx="132.2" ry="101.4" fill="none" stroke="#1B7340" stroke-width="1.5" opacity="0.36" transform="rotate(123 256 256)"/>
<ellipse cx="256" cy="256" rx="156.8" ry="127.3" fill="none" stroke="#1B7340" stroke-width="1.5" opacity="0.44" transform="rotate(111 256 256)"/>
<circle cx="202.5" cy="160.9" r="8.8" fill="#2ECC71" opacity="0.5"/>
<circle cx="207.3" cy="113.6" r="5.7" fill="#1B7340" opacity="0.5"/>
<circle cx="220.9" cy="150.6" r="6.1" fill="#1B7340" opacity="0.5"/>
<circle cx="260.7" cy="133.3" r="3.7" fill="#2ECC71" opacity="0.5"/>
<circle cx="228.1" cy="329.0" r="5.5" fill="#1B7340" opacity="0.5"/>
<circle cx="389.2" cy="189.5" r="7.5" fill="#1B7340" opacity="0.5"/>
<circle cx="214.8" cy="350.8" r="5.1" fill="#2ECC71" opacity="0.5"/>
<circle cx="361.3" cy="371.2" r="8.1" fill="#1B7340" opacity="0.5"/>

  <circle cx="256" cy="256" r="64" fill="#0A1628" stroke="#1B7340" stroke-width="2.5" opacity="0.95"/>
  <text x="256" y="256" text-anchor="middle" dominant-baseline="central" font-family="system-ui, -apple-system, sans-serif" font-size="42" font-weight="700" fill="#1B7340" letter-spacing="2">VS</text>
</svg>