<svg xmlns="http://www.w3.org/2000/svg" viewBox="0 0 512 512" width="512" height="512">
  <defs>
    <linearGradient id="bg-win-gatchalian" x1="0%" y1="0%" x2="100%" y2="100%">
      <stop offset="0%" stop-color="#0A1628"/>
      <stop offset="100%" stop-color="#0F1F35"/>
    </linearGradient>
    <radialGradient id="glow-win-gatchalian" cx="50%" cy="50%" r="50%">
      <stop offset="0%" stop-color="#1B7340" stop-opacity="0.08"/>
      <stop offset="100%" stop-color="#1B7340" stop-opacity="0"/>
    </radialGradient>
  </defs>

  <!-- Background -->
  <rect width="512" height="512" fill="url(#bg-win-gatchalian)" rx="32"/>

  <!-- Ambient glow -->
  <rect width="512" height="512" fill="url(#glow-win-gatchalian)" rx="32"/>

  <!-- Geometric pattern -->
  <rect x="280.9" y="283.4" width="53.0" height="53.0" fill="#1B7340" opacity="0.12905636855379127" transform="rotate(55 307.4 309.9)"/>
<rect x="277.6" y="215.7" width="73.3" height="73.3" fill="#1B7340" opacity="0.19174796858377474" transform="rotate(60 314.3 252.3)"/>
<rect x="257.9" y="215.7" width="50.3" height="50.3" fill="#1B7340" opacity="0.24941584313041898" transform="rotate(17 283.1 240.9)"/>
<rect x="166.8" y="272.3" width="66.4" height="66.4" fill="#1B7340" opacity="0.21114029003333773" transform="rotate(67 200.0 305.5)"/>
<rect x="208.7" y="184.2" width="50.0" height="50.0" fill="#1B7340" opacity="0.1500194155960389" transform="rotate(75 233.7 209.2)"/>
<line x1="156" y1="256" x2="356" y2="256" stroke="#2ECC71" stroke-width="1.5" opacity="0.4"/>
<line x1="256" y1="156" x2="256" y2="356" stroke="#2ECC71" stroke-width="1.5" opacity="0.4"/>


  <!-- Initials circle -->
  <circle cx="256" cy="256" r="64" fill="#0A1628" stroke="#1B7340" stroke-width="2.5" opacity="0.95"/>
  <text x="256" y="256" text-anchor="middle" dominant-baseline="central" font-family="system-ui, -apple-system, sans-serif" font-size="42" font-weight="700" fill="#1B7340" letter-spacing="2">WG</text>
</svg>